#!OML:ASF F:\VICON\USERDATA\INSTALL\rory3\rory3.ASF
:FULLY-SPECIFIED
:DEGREES
37
root 0.7140867891587754 18.097145999648898 -3.020205484551754 -1.7869264636439213 1.751230066213454 2.3699724422969455
lfemur 7.453302294851394 -0.7717721187447149 -27.075467558568764
ltibia 18.79289985914871
lfoot -11.735292856762312 0.11010882464401739
ltoes -4.7721747850560465
rfemur -29.6512114601029 3.773195898037998 17.531353382741713
rtibia 30.334132877682293
rfoot -6.191057158491791 -13.567582104283497
rtoes 6.074780068256763
lowerback 1.0 -1.3692668855799168 -4.097966804010697
upperback 0.516350228744506 -2.1181579887928166 1.3271369212132682
thorax -4.9185600833483445 -0.9476349172082718 3.9551075969608496
lowerneck -15.947487503246963 -3.169788659804218 -2.134572145464405
upperneck 22.899152817729544 -3.9975930685345347 0.09929830240092236
head 9.945531876719734 -2.009666664310481 -0.13716868229455392
lclavicle 1.8156784371702666e-14 -1.0581928586763565e-15
lhumerus -22.99077218570376 -2.8792157126875693 81.65482375595768
lradius 28.268133793201503
lwrist 5.558118033096699
lhand -26.098138964595325 30.429699111125323
lfingers nan
lthumb -0.3661166663430806 58.58263667849621
rclavicle 1.519649187045638e-14 -2.223372569768119e-15
rhumerus -31.910000175712916 -23.64312004530602 -76.36467575646768
rradius 23.148232833405775
rwrist 7.224770684967875
rhand -18.81683807909859 1.0
rfingers nan
rthumb 7.396280204236712 -6.797785990938919
38
root 0.6573097672336231 18.060636080186633 -2.0391799833887934 -1.067785690841774 2.9482982371879074 2.990198682897107
lfemur 10.76863479983062 -0.43961104607172463 -27.232063233454603
ltibia 15.535382686869774
lfoot -9.949043855555342 -1.0398516059025242
ltoes -8.005380502043769
rfemur -28.76066552125934 8.039124605302522 14.158517750054925
rtibia 19.257446459679883
rfoot -7.520945263634145 -17.25351265330939
rtoes 0.01713864351833827
lowerback 1.0 -1.6928896047524205 -5.236698273779072
upperback 0.3346240203367242 -2.6575368152680405 1.2751760609054212
thorax -4.849372348227444 -1.190727278350785 4.749290078820245
lowerneck -15.804942256165393 -3.1966681360039457 -2.0834194292257915
upperneck 22.88557809634617 -4.015150952164371 -0.016271716935967073
head 9.913741497988536 -2.028162925625996 -0.2136763486211502
lclavicle -3.0716338796930935e-15 9.321173769308586e-15
lhumerus -22.548639510066288 -4.1578495420774235 81.91411601316547
lradius 30.28262505289484
lwrist 5.965052159521336
lhand -17.270639809919217 46.431255728294715
lfingers nan
lthumb 9.887336605711734 77.7107053117334
rclavicle -2.81275663768127e-15 9.104958432232852e-15
rhumerus -33.05177558393583 -24.624485699547893 -75.04620785407587
rradius 22.550119955518973
rwrist 8.037669108329197
rhand -18.063704265065468 1.0
rfingers nan
rthumb 8.186206617852477 -5.942434556574722
39
root 0.582873610944103 18.00332621177328 -1.4208007906500129 -0.6670413309708303 3.826014414305835 3.2285149199835326
lfemur 12.677493723741707 -1.5833654774160755 -26.571495731448927
ltibia 15.529985950865132
lfoot -8.642791246720789 -2.066259323892604
ltoes -10.76113347698142
rfemur -27.226561122160717 10.541205954820411 12.80314156481859
rtibia 13.446360135294029
rfoot -8.885977205295081 -19.302297245579364
rtoes -8.380668889894883
lowerback 1.0 -2.031303221568612 -5.2106066169629095
upperback 0.0788012271509789 -3.15061432374603 1.4145354784934057
thorax -5.145046240599233 -1.441095566067563 4.748861187876497
lowerneck -16.059846997440204 -3.245874942498629 -2.1227499735670494
upperneck 23.16131482608471 -4.248135336523159 0.3400414474475491
head 10.103045664180195 -2.091053552181997 -0.13306222398472642
lclavicle -8.379368568298031e-15 7.61436321729254e-16
lhumerus -21.89843101541148 -5.622645036012317 81.99751903854956
lradius 31.636794901043572
lwrist 6.530965441646203
lhand -27.22923509727142 29.43149666467175
lfingers nan
lthumb -0.8264201029561281 59.01301883936663
rclavicle -9.604844456922537e-15 -1.0640874283774434e-15
rhumerus -33.947825113021786 -25.691288179608613 -74.06421857394862
rradius 22.28626133652991
rwrist 8.275722268535946
rhand -18.438891548393602 1.0
rfingers nan
rthumb 7.912893648713817 -6.82493684807533
40
root 0.5053736645305665 17.938593885704865 -0.86291661266171 -0.5782736593186462 4.050111141708641 3.263919398354714
lfemur 13.99826363998078 -2.1825795665873575 -26.508440230956673
ltibia 16.8521776241645
lfoot -7.02752727944795 -2.708834471742047
ltoes -12.847553092704377
rfemur -28.135201172656522 5.37130504227663 15.474353899438768
rtibia 17.489453452905032
rfoot -5.426288806562612 -14.502080296300363
rtoes -9.735472248422981
lowerback 1.0 -1.8792934408432382 -5.5757013200798315
upperback 0.295197015689145 -2.889004311048159 1.3773736947812418
thorax -5.002563356363378 -1.3459562893147807 4.923925871260779
lowerneck -16.518757690365458 -3.2451825622177397 -2.0255517047119005
upperneck 23.026826392159993 -4.377266242698878 0.37099989859017435
head 10.133408499956325 -2.1396052701788735 -0.15847651134882673
lclavicle -1.3143195184119632e-14 1.6182632624268507e-16
lhumerus -21.290543741403653 -5.7153050287776885 82.0034293897688
lradius 32.50995907667346
lwrist 6.807441251066363
lhand -26.729043081878746 30.63788084813793
lfingers nan
lthumb -0.29671759050543334 60.7255405507821
rclavicle -1.3779268687711841e-14 -1.9727033118430233e-15
rhumerus -34.265587152991884 -26.60495928415389 -73.44069087079545
rradius 22.00137283676654
rwrist 8.747344375925538
rhand -19.335513593659233 1.0
rfingers nan
rthumb 7.012715000802039 -7.423590746055178
41
root 0.4251355485464954 17.907971307524193 -0.015231227474028941 -0.6789523509563604 3.952176036447732 2.8559106948167905
lfemur 15.330355513346968 -2.9084359055144846 -26.310477540999404
ltibia 19.13361470005526
lfoot -6.427972852288353 -3.7577145523070357
ltoes -15.545416865321812
rfemur -27.854951874908167 4.086025531384574 17.140732942182787
rtibia 22.35051330008163
rfoot -6.45438572846234 -12.362098066603831
rtoes -10.787435380750873
lowerback 1.0 -1.8156833271582624 -5.515173831158619
upperback 0.29270959890134063 -2.814468830672697 1.4648680644494139
thorax -5.015668831007267 -1.3559224508136234 4.851300862896638
lowerneck -16.465811352166586 -3.1442458526414363 -2.175095840332552
upperneck 23.190691932575344 -4.20335434964246 0.5776357680198371
head 10.194807548527963 -2.0590590375334434 -0.02452251293682161
lclavicle -2.7597304593199432e-14 -3.357178943168155e-15
lhumerus -21.98754676848909 -5.672604879141904 82.12835667780742
lradius 33.21214749644682
lwrist 7.131945855367714
lhand -27.758445552770386 27.66900592213343
lfingers nan
lthumb -1.4543329797712778 57.11003346105049
rclavicle -2.4785941153561784e-14 -1.8939957544279366e-15
rhumerus -35.505368408771474 -27.59718163999041 -72.2738628548826
rradius 21.295788070794313
rwrist 9.553189769364828
rhand -19.64816065927234 1.0
rfingers nan
rthumb 6.71659704321544 -8.464108776785142
42
root 0.35631320005780176 17.937475863662918 1.0628909052167685 -0.837081502109218 3.673379824948358 1.8469892178759209
lfemur 15.557030669115688 -4.2282417920720805 -24.974062069608074
ltibia 22.556178277542465
lfoot -5.21167115548143 -4.732442374907587
ltoes -19.0179894050456
rfemur -27.337830553276227 4.909340015914975 18.340783179121303
rtibia 24.72939783664448
rfoot -4.872592857322681 -9.24566436305093
rtoes -7.008064333000643
lowerback 1.0 -2.0355294494500225 -4.289911797784125
upperback -0.014079137503487382 -2.860129992302976 1.8535688040771736
thorax -5.173061356938021 -1.4052924825219202 4.666141483105543
lowerneck -16.16640247166214 -2.9693871534716747 -2.067038209489445
upperneck 23.755934361151038 -3.8998808077427087 -0.012835413132046947
head 10.343980189782318 -1.9703789725266516 -0.2138099039105512
lclavicle 1.8953265849256837e-14 -6.093945961001485e-15
lhumerus -23.4925825059601 -4.377916683700525 82.5515732145593
lradius 33.482450444241316
lwrist 7.390770761085956
lhand -29.457245723557183 24.32383905968944
lfingers nan
lthumb -2.8950711159235007 54.37092088870955
rclavicle 1.9617114766031345e-14 -4.945633373339396e-15
rhumerus -36.53490170847278 -29.215781080448927 -70.18368127160744
rradius 19.796537427066177
rwrist 12.21197139407591
rhand -19.616577224961194 1.0
rfingers nan
rthumb 6.678650995085878 -8.558088781726378
43
root 0.2903705386375846 17.99053377980553 1.9260386013251836 -1.0920635636076899 3.1281944519619125 0.5055464666003833
lfemur 13.014044252046181 -3.9043521180195295 -22.666316168373832
ltibia 30.704232952820437
lfoot -2.2946837100262987 -5.351814791376912
ltoes -21.698998481643713
rfemur -25.65083947103695 4.822389006564768 21.36609660568195
rtibia 26.944834457573855
rfoot -4.6647751175974665 -4.795208327450213
rtoes 1.771201187565203
lowerback 1.0 -1.852023743618464 -1.8803564347376314
upperback -0.18872274879735165 -2.497417873806796 2.3464529793472666
thorax -5.4552346811068 -1.2141874931137673 3.846317349086922
lowerneck -16.038846800539126 -2.8499265258144297 -2.296180511029115
upperneck 23.99935435335141 -3.4612491958621217 -0.2085532850881342
head 10.4034218762621 -1.8137154271773386 -0.16720222175169186
lclavicle -2.9604956675120036e-14 4.6713104477066185e-15
lhumerus -24.95844325952948 -1.369505642766097 82.58047492475959
lradius 33.25402611362573
lwrist 7.783699439870807
lhand -28.958787399937833 23.828871750461012
lfingers nan
lthumb -2.6243787545307935 53.356775692056885
rclavicle -2.6332222740816446e-14 4.383788308030961e-15
rhumerus -37.2687874083264 -31.728619544791464 -67.91587615346282
rradius 18.323599155635222
rwrist 15.060127213148824
rhand -19.62779397332479 1.0
rfingers nan
rthumb 6.710752508927006 -8.561859112732199
44
root 0.22016222922829834 18.068748109359362 2.660178435426274 -1.4351037112482161 2.6686556815869724 -0.8078357515334946
lfemur 9.153846685598056 -2.7437306778311923 -21.03301829377592
ltibia 39.51467150934076
lfoot 1.5593008227626797 -9.327954746916419
ltoes -13.105758374248214
rfemur -23.633948915965888 4.245031840370813 22.84327571623869
rtibia 28.76997299465284
rfoot -5.503053163975078 -3.963053674870873
rtoes 6.6733151783035005
lowerback 1.0 -1.6479329530944928 -1.1843186062900621
upperback -0.13151641384746912 -2.2150900667431546 2.403470777020734
thorax -5.29721233323945 -1.0183655296878793 3.5935514770551764
lowerneck -16.309941331636598 -2.8234815679700356 -2.0164747708659996
upperneck 24.06063757070463 -3.4331370488954067 -0.558045125701835
head 10.481781343690981 -1.8136580794393828 -0.3389606101788861
lclavicle -8.312878334719032e-17 -1.2058141649445918e-15
lhumerus -26.72207403902354 -0.5952879316007134 82.78915293129238
lradius 33.3253242737834
lwrist 8.044232065096914
lhand -28.711314621825295 24.748768231982456
lfingers nan
lthumb -1.671734660141576 55.8536425940288
rclavicle -2.160799615426983e-15 -1.2380619420894461e-15
rhumerus -37.27701859863677 -32.404242353043564 -67.88847313910321
rradius 18.2212024934691
rwrist 14.836169444387146
rhand -19.314594909111275 1.0
rfingers nan
rthumb 7.057257892699439 -8.96911857242385
